<svg xmlns="http://www.w3.org/2000/svg" viewBox="0 0 374.92 58">
  <title>KB logo</title>
  <g>
    <polygon points="106.7 43.66 114.26 43.66 114.26 35.98 115.84 33.54 120.28 43.66 128.89 43.66 120.68 27.32 128 14.64 119.95 14.64 114.34 25.78 114.26 25.78 114.26 14.64 106.7 14.64 106.7 43.66 106.7 43.66 106.7 43.66" style="fill: #fff"/>
    <polygon points="129.57 43.66 136.64 43.66 136.64 25.74 136.72 25.74 141.76 43.66 150.05 43.66 150.05 14.64 142.98 14.64 142.98 32.52 142.9 32.52 138.02 14.64 129.57 14.64 129.57 43.66 129.57 43.66 129.57 43.66" style="fill: #fff"/>
    <path d="M163.67,15.07c-7.72,0-10.37,4.23-10.37,15.08S156,45.23,163.67,45.23,174,41,174,30.15,171.39,15.07,163.67,15.07Zm0,25c-2.32,0-2.56-2.12-2.56-10s.24-10,2.56-10,2.56,2.12,2.56,10S166,40.11,163.67,40.11Z" transform="translate(-0.54 -1)" style="fill: #fff;fill-rule: evenodd"/>
    <path d="M196.69,43.36c-.36-.57-.36-2.52-.36-4V36.86c0-3.87-1.1-6.18-4.76-6.51v-.08c3.46-.53,5-3.05,5-6.91,0-4.47-2.19-7.72-8-7.72H176.74v29h7.56V33h2c1.83,0,2.48.85,2.48,4.14v2c0,1.22,0,4,.73,5.53h8.05v-.41A2,2,0,0,1,196.69,43.36ZM185.8,27.91h-1.5V21.09h1.46c2.28,0,3.21,1,3.21,3.37C189,26.53,188,27.91,185.8,27.91Z" transform="translate(-0.54 -1)" style="fill: #fff;fill-rule: evenodd"/>
    <path d="M220,43.36c-.36-.57-.36-2.52-.36-4V36.86c0-3.87-1.1-6.18-4.76-6.51v-.08c3.46-.53,5-3.05,5-6.91,0-4.47-2.19-7.72-8-7.72H200.06v29h7.56V33h2c1.83,0,2.48.85,2.48,4.14v2c0,1.22,0,4,.73,5.53h8.05v-.41A2,2,0,0,1,220,43.36ZM209.12,27.91h-1.5V21.09h1.46c2.28,0,3.21,1,3.21,3.37C212.29,26.53,211.28,27.91,209.12,27.91Z" transform="translate(-0.54 -1)" style="fill: #fff;fill-rule: evenodd"/>
    <polygon points="222.19 35 234.87 35 234.87 28.82 222.19 28.82 222.19 35 222.19 35 222.19 35" style="fill: #fff"/>
    <path d="M253.37,29.46v-.08c3.21-.65,4.55-3.42,4.55-6.5,0-4.35-2.52-7.24-7.93-7.24H238.57v29H250c6.3,0,8.74-3.54,8.74-8.58C258.73,33.08,257.19,29.82,253.37,29.46Zm-7.24-8.37H248c1.55,0,2.4,1.38,2.4,3S249.51,27,248,27h-1.83Zm2.12,18.12h-2.12V32.14h2.12c1.38,0,2.68,1.26,2.68,3.5S249.63,39.21,248.25,39.21Z" transform="translate(-0.54 -1)" style="fill: #fff;fill-rule: evenodd"/>
    <path d="M281.61,43.36c-.37-.57-.37-2.52-.37-4V36.86c0-3.87-1.1-6.18-4.75-6.51v-.08c3.45-.53,4.95-3.05,4.95-6.91,0-4.47-2.19-7.72-8-7.72H261.65v29h7.56V33h2c1.83,0,2.48.85,2.48,4.14v2c0,1.22,0,4,.73,5.53h8v-.41A1.94,1.94,0,0,1,281.61,43.36Zm-10.9-15.45h-1.5V21.09h1.46c2.28,0,3.21,1,3.21,3.37C273.88,26.53,272.87,27.91,270.71,27.91Z" transform="translate(-0.54 -1)" style="fill: #fff;fill-rule: evenodd"/>
    <polygon points="284.43 43.66 301.99 43.66 301.99 37.48 291.99 37.48 291.99 31.71 301.01 31.71 301.01 25.78 291.99 25.78 291.99 20.82 301.62 20.82 301.62 14.64 284.43 14.64 284.43 43.66 284.43 43.66 284.43 43.66" style="fill: #fff"/>
    <polygon points="304.46 43.66 311.54 43.66 311.54 22.04 311.62 22.04 315.64 43.66 321.09 43.66 325.11 22.04 325.19 22.04 325.19 43.66 332.26 43.66 332.26 14.64 321.45 14.64 318.41 31.83 318.32 31.83 315.28 14.64 304.46 14.64 304.46 43.66 304.46 43.66 304.46 43.66" style="fill: #fff"/>
    <path d="M354.46,24c0-6.22-2.81-8.94-9.39-8.94-6.38,0-9.51,3.21-9.51,9.06,0,10.29,11.87,7.44,11.87,13.17,0,1.59-.9,2.81-2.44,2.81s-2.48-.9-2.48-3.38V36h-7.32v1c0,6,3.5,8.17,9.76,8.17,6.66,0,10.28-2.77,10.28-8.94,0-10.61-12.36-7.81-12.36-13.54a2.34,2.34,0,0,1,2.36-2.56c1.46,0,2.16,1.42,2.16,3.13V24Z" transform="translate(-0.54 -1)" style="fill: #fff"/>
    <polygon points="357.36 43.66 374.92 43.66 374.92 37.48 364.92 37.48 364.92 31.71 373.94 31.71 373.94 25.78 364.92 25.78 364.92 20.82 374.55 20.82 374.55 14.64 357.36 14.64 357.36 43.66 357.36 43.66 357.36 43.66" style="fill: #fff"/>
    <polygon points="0 0 85.07 0 85.07 58 0 58 0 0 0 0 0 0" style="fill: #fff"/>
    <path d="M43.07,10.67A19.33,19.33,0,1,0,62.4,30,19.33,19.33,0,0,0,43.07,10.67Zm-.06,34A14.7,14.7,0,1,1,57.7,30,14.7,14.7,0,0,1,43,44.69Z" transform="translate(-0.54 -1)" style="fill: #15477c"/>
    <path d="M66.13,19.17a25.61,25.61,0,0,1,0,21.67H60.86a20.9,20.9,0,0,0,0-21.66Z" transform="translate(-0.54 -1)" style="fill: #15477c"/>
    <path d="M25.15,19.17a20.9,20.9,0,0,0,0,21.63H19.89a25.56,25.56,0,0,1,0-21.65Z" transform="translate(-0.54 -1)" style="fill: #15477c"/>
    <polygon points="33.75 18.17 39.94 18.17 39.94 39.82 33.75 39.82 33.75 18.17 33.75 18.17 33.75 18.17" style="fill: #15477c"/>
    <polygon points="51.47 39.82 46.21 29.03 51.47 18.17 45.29 18.17 40.02 28.95 45.29 39.82 51.47 39.82 51.47 39.82 51.47 39.82" style="fill: #15477c"/>
    <path d="M15.94,30A26.94,26.94,0,0,1,18.2,19.17H13.55L8.28,30l5.27,10.86H18.2A27,27,0,0,1,15.94,30Z" transform="translate(-0.54 -1)" style="fill: #15477c"/>
    <path d="M70.08,30a26.94,26.94,0,0,0-2.26-10.82h4.66L77.74,30,72.48,40.82H67.82A27,27,0,0,0,70.08,30Z" transform="translate(-0.54 -1)" style="fill: #15477c"/>
  </g>
</svg>
